<svg id="Layer_1" data-name="Layer 1" xmlns="http://www.w3.org/2000/svg" viewBox="0 0 317.17 45"><defs><style>.cls-1{fill:#232323;}</style></defs><title>hacks-hackers-slim</title><path class="cls-1" d="M142.34,9.94h-4.51L128.06,35h4.3Z"/><polygon class="cls-1" points="25.27 20.05 14.99 20.05 14.86 20.05 14.78 20.05 14.78 19.96 14.78 19.83 14.78 9.95 10.17 9.95 10.17 35.03 14.78 35.03 14.78 24.04 14.78 23.9 14.78 23.82 14.86 23.82 14.99 23.82 25.27 23.82 25.41 23.82 25.49 23.82 25.49 23.9 25.49 24.04 25.49 35.03 30.1 35.03 30.1 9.95 25.49 9.95 25.49 19.83 25.49 19.96 25.49 20.05 25.41 20.05 25.27 20.05"/><path class="cls-1" d="M67.83,31.61a6,6,0,0,1-4.77-2.17c-1.21-1.42-1.82-3.81-1.82-7.11,0-3.11.62-5.4,1.85-6.82a6.13,6.13,0,0,1,4.84-2.14,5.74,5.74,0,0,1,3.69,1.22,5.67,5.67,0,0,1,1.93,3l4.56-1.09a9.66,9.66,0,0,0-2.46-4.31,10.44,10.44,0,0,0-7.45-2.7A11.11,11.11,0,0,0,59.71,13c-2.14,2.3-3.23,5.58-3.23,9.75,0,3.94,1.08,7.09,3.21,9.35a10.81,10.81,0,0,0,8.19,3.4,10.73,10.73,0,0,0,6.64-2,10.88,10.88,0,0,0,3.66-5.82l-4.47-1.42a7.69,7.69,0,0,1-2.15,4A5.49,5.49,0,0,1,67.83,31.61Z"/><polygon class="cls-1" points="93.27 19.68 93.23 19.62 93.28 19.57 93.35 19.5 93.39 19.46 102.58 9.95 96.41 9.95 85.92 21.37 85.69 21.62 85.54 21.79 85.54 21.56 85.54 21.23 85.54 9.95 80.93 9.95 80.93 35.03 85.54 35.03 85.54 27.54 85.54 27.48 85.54 27.45 85.57 27.42 85.61 27.38 89.88 23.02 90 22.9 90.08 22.82 90.14 22.91 90.22 23.06 90.27 23.13 97.24 35.03 103.25 35.03 93.33 19.77 93.27 19.68"/><path class="cls-1" d="M119.46,21.4a25,25,0,0,0-5.52-1.82c-2.55-.6-4.19-1.2-4.88-1.77a2.25,2.25,0,0,1-.87-1.77,2.15,2.15,0,0,1,.94-1.82,6.22,6.22,0,0,1,3.7-1,5.51,5.51,0,0,1,3.46.93,4.53,4.53,0,0,1,1.48,2.77l4.65-.2A7.17,7.17,0,0,0,120,11.56c-1.57-1.36-4-2-7.08-2a12.62,12.62,0,0,0-4.94.87,6.71,6.71,0,0,0-3.08,2.49,6.34,6.34,0,0,0-1.06,3.51,6.43,6.43,0,0,0,2.27,4.95,13.88,13.88,0,0,0,5.72,2.47c2.19.55,3.56.91,4.17,1.13a4.55,4.55,0,0,1,2,1.2,2.63,2.63,0,0,1,.6,1.73,3.43,3.43,0,0,1-1.37,2.69,6.06,6.06,0,0,1-4,1.12,5.88,5.88,0,0,1-3.94-1.26,6.27,6.27,0,0,1-1.89-3.63l-4.49.44a9.4,9.4,0,0,0,3,6.08c1.68,1.45,4.13,2.18,7.29,2.18a14.32,14.32,0,0,0,5.47-.91A7.09,7.09,0,0,0,122,31.82a7.79,7.79,0,0,0,.2-7.91A7,7,0,0,0,119.46,21.4Z"/><polygon class="cls-1" points="37.01 35.02 32.13 35.02 41.89 9.94 46.78 9.94 37.01 35.02"/><polygon class="cls-1" points="49.14 15.32 46.77 21.27 48.21 25.15 48.28 25.32 48.32 25.44 48.19 25.44 48.01 25.44 45.11 25.44 43.62 29.19 49.62 29.19 49.71 29.19 49.77 29.19 49.79 29.25 49.82 29.34 49.84 29.38 52.01 35.02 57.03 35.02 49.14 15.32"/><polygon class="cls-1" points="163.22 20.05 152.94 20.05 152.81 20.05 152.73 20.05 152.73 19.96 152.73 19.83 152.73 9.95 148.12 9.95 148.12 35.03 152.73 35.03 152.73 24.04 152.73 23.9 152.73 23.82 152.81 23.82 152.94 23.82 163.22 23.82 163.35 23.82 163.44 23.82 163.44 23.9 163.44 24.04 163.44 35.03 168.05 35.03 168.05 9.95 163.44 9.95 163.44 19.83 163.44 19.96 163.44 20.05 163.35 20.05 163.22 20.05"/><path class="cls-1" d="M205.77,31.61A6,6,0,0,1,201,29.45c-1.21-1.42-1.82-3.81-1.82-7.11,0-3.11.62-5.41,1.85-6.82a6.13,6.13,0,0,1,4.84-2.14,5.74,5.74,0,0,1,3.69,1.22,5.66,5.66,0,0,1,1.93,3l4.56-1.09a9.68,9.68,0,0,0-2.46-4.31,10.44,10.44,0,0,0-7.45-2.7A11.11,11.11,0,0,0,197.65,13c-2.14,2.3-3.23,5.58-3.23,9.75,0,3.94,1.08,7.09,3.21,9.35a11.8,11.8,0,0,0,14.83,1.42,10.88,10.88,0,0,0,3.66-5.82l-4.47-1.42a7.69,7.69,0,0,1-2.15,4A5.48,5.48,0,0,1,205.77,31.61Z"/><polygon class="cls-1" points="231.22 19.68 231.18 19.62 231.23 19.57 231.3 19.5 231.34 19.46 240.53 9.95 234.36 9.95 223.87 21.37 223.64 21.62 223.49 21.79 223.49 21.56 223.49 21.23 223.49 9.95 218.88 9.95 218.88 35.03 223.49 35.03 223.49 27.54 223.49 27.48 223.49 27.45 223.51 27.42 223.55 27.38 227.83 23.02 227.95 22.9 228.03 22.82 228.09 22.91 228.17 23.06 228.22 23.13 235.19 35.03 241.2 35.03 231.28 19.77 231.22 19.68"/><polygon class="cls-1" points="248.06 31.28 247.97 31.28 247.97 31.19 247.97 31.06 247.97 23.95 247.97 23.82 247.97 23.73 248.06 23.73 248.19 23.73 260.85 23.73 260.85 19.98 248.19 19.98 248.06 19.98 247.97 19.98 247.97 19.89 247.97 19.76 247.97 13.94 247.97 13.81 247.97 13.72 248.06 13.72 248.19 13.72 261.81 13.72 261.81 9.95 243.36 9.95 243.36 35.03 262.3 35.03 262.3 31.28 248.19 31.28 248.06 31.28"/><path class="cls-1" d="M282,26.34a11.85,11.85,0,0,0-2.71-2.1l-.16-.09-.32-.19-.22-.13.25,0,.37-.05.19,0a7.92,7.92,0,0,0,4.9-2.28,6.6,6.6,0,0,0,1.62-4.58A7.14,7.14,0,0,0,284.82,13,5.64,5.64,0,0,0,282,10.62,18.49,18.49,0,0,0,276.1,10H265.48V35h4.61V24.32h1.33a8.85,8.85,0,0,1,2.7.3,4.28,4.28,0,0,1,1.67,1.14,36.44,36.44,0,0,1,2.76,3.81L282.22,35h5.53l-2.86-4.57A29.12,29.12,0,0,0,282,26.34Zm-7.76-5.54h-4.12V13.72h4.33c2.1,0,3.38,0,3.82.09a3.47,3.47,0,0,1,2.13,1.1,3.37,3.37,0,0,1,.76,2.28,3.63,3.63,0,0,1-.57,2.08A3.07,3.07,0,0,1,279,20.47,19.62,19.62,0,0,1,274.21,20.8Z"/><path class="cls-1" d="M306.68,23.91A7,7,0,0,0,304,21.4a25,25,0,0,0-5.52-1.82c-2.55-.6-4.19-1.2-4.88-1.77a2.25,2.25,0,0,1-.87-1.77,2.15,2.15,0,0,1,.94-1.82,6.22,6.22,0,0,1,3.7-1,5.51,5.51,0,0,1,3.46.93,4.53,4.53,0,0,1,1.48,2.77l4.65-.2a7.17,7.17,0,0,0-2.45-5.17c-1.57-1.36-4-2-7.08-2a12.62,12.62,0,0,0-4.94.87,6.71,6.71,0,0,0-3.08,2.49,6.34,6.34,0,0,0-1.06,3.51,6.43,6.43,0,0,0,2.27,4.95,13.88,13.88,0,0,0,5.72,2.47c2.19.55,3.56.91,4.17,1.13a4.55,4.55,0,0,1,2,1.2,2.63,2.63,0,0,1,.6,1.73,3.43,3.43,0,0,1-1.37,2.69,6.06,6.06,0,0,1-4,1.12,5.88,5.88,0,0,1-3.94-1.26,6.27,6.27,0,0,1-1.89-3.63l-4.49.44a9.41,9.41,0,0,0,3,6.08c1.68,1.45,4.13,2.18,7.29,2.18a14.32,14.32,0,0,0,5.47-.91,7.09,7.09,0,0,0,3.33-2.75,7.79,7.79,0,0,0,.2-7.91Z"/><polygon class="cls-1" points="177.23 29.19 184.73 9.94 179.84 9.94 170.07 35.02 174.95 35.02 177.22 29.19 177.23 29.19"/><polygon class="cls-1" points="187.08 15.32 184.72 21.27 186.16 25.15 186.22 25.32 186.26 25.44 186.14 25.44 185.95 25.44 183.06 25.44 181.56 29.19 187.56 29.19 187.65 29.19 187.71 29.19 187.74 29.25 187.77 29.34 187.78 29.38 189.95 35.02 194.97 35.02 187.08 15.32"/></svg>