<svg id="Layer_1" data-name="Layer 1" xmlns="http://www.w3.org/2000/svg" viewBox="0 0 234.5 45"><defs><style>.cls-1{opacity:0.75;}.cls-2,.cls-3{fill:#01b3b9;}.cls-3{font-size:36.43px;font-family:Arial-BoldMT, Arial;font-weight:700;letter-spacing:-0.04em;}</style></defs><title>hacks-hackers-bne-large</title><g class="cls-1"><polygon class="cls-2" points="33.79 9.53 33.79 19.75 33.79 19.89 33.79 19.98 33.7 19.98 33.56 19.98 31.2 19.98 29.72 23.88 33.56 23.88 33.7 23.88 33.79 23.88 33.79 23.97 33.79 24.1 33.79 35.48 38.56 35.48 38.56 9.53 33.79 9.53"/><polyline class="cls-2" points="26.78 19.98 26.69 19.98 26.69 19.89 26.69 19.75"/><polygon class="cls-2" points="22 35.47 16.64 35.47 26.48 9.52 31.85 9.52 22 35.47"/><polygon class="cls-2" points="19.2 19.98 14.93 19.98 14.79 19.98 14.7 19.98 14.7 19.89 14.7 19.75 14.7 9.53 9.93 9.53 9.93 35.48 14.7 35.48 14.7 24.1 14.7 23.97 14.7 23.88 14.79 23.88 14.93 23.88 17.72 23.88 19.2 19.98"/></g><text class="cls-3" transform="translate(47.34 35.59)">BRISBANE</text></svg>