<svg id="Layer_1" data-name="Layer 1" xmlns="http://www.w3.org/2000/svg" viewBox="0 0 129.83 45"><defs><style>.cls-1{opacity:0.75;}.cls-2,.cls-3{fill:#01b3b9;}.cls-3{font-size:36.43px;font-family:Arial-BoldMT, Arial;font-weight:700;letter-spacing:-0.04em;}</style></defs><title>hacks-hackers-bne</title><g class="cls-1"><polygon class="cls-2" points="34.03 9.86 34.03 20.08 34.03 20.22 34.03 20.31 33.94 20.31 33.8 20.31 31.44 20.31 29.95 24.21 33.8 24.21 33.94 24.21 34.03 24.21 34.03 24.3 34.03 24.44 34.03 35.82 38.8 35.82 38.8 9.86 34.03 9.86"/><polyline class="cls-2" points="27.02 20.31 26.93 20.31 26.93 20.22 26.93 20.08"/><polygon class="cls-2" points="22.23 35.81 16.87 35.81 26.72 9.85 32.09 9.85 22.23 35.81"/><polygon class="cls-2" points="19.43 20.31 15.16 20.31 15.03 20.31 14.94 20.31 14.94 20.22 14.94 20.08 14.94 9.86 10.17 9.86 10.17 35.82 14.94 35.82 14.94 24.44 14.94 24.3 14.94 24.21 15.03 24.21 15.16 24.21 17.95 24.21 19.43 20.31"/></g><text class="cls-3" transform="translate(47.76 35.92)">BNE</text></svg>