<svg id="Layer_1" data-name="Layer 1" xmlns="http://www.w3.org/2000/svg" viewBox="0 0 184.33 78.38"><defs><style>.cls-1{fill:#232323;}</style></defs><title>hacks-hackers</title><polygon class="cls-1" points="25.31 20.07 14.67 20.07 14.53 20.07 14.44 20.07 14.44 19.98 14.44 19.85 14.44 9.62 9.67 9.62 9.67 35.59 14.44 35.59 14.44 24.2 14.44 24.07 14.44 23.98 14.53 23.98 14.67 23.98 25.31 23.98 25.45 23.98 25.54 23.98 25.54 24.07 25.54 24.2 25.54 35.59 30.31 35.59 30.31 9.62 25.54 9.62 25.54 19.85 25.54 19.98 25.54 20.07 25.45 20.07 25.31 20.07"/><path class="cls-1" d="M69.38,32a6.19,6.19,0,0,1-4.93-2.24c-1.25-1.47-1.88-4-1.88-7.36,0-3.22.64-5.6,1.91-7.06a6.35,6.35,0,0,1,5-2.22,5.94,5.94,0,0,1,3.82,1.26,5.87,5.87,0,0,1,2,3.14L80,16.43A10,10,0,0,0,77.47,12a10.81,10.81,0,0,0-7.72-2.8A11.51,11.51,0,0,0,61,12.74c-2.22,2.38-3.34,5.78-3.34,10.1,0,4.08,1.12,7.34,3.33,9.68A11.19,11.19,0,0,0,69.43,36,11.11,11.11,0,0,0,76.31,34a11.27,11.27,0,0,0,3.79-6L75.48,26.5a8,8,0,0,1-2.23,4.12A5.68,5.68,0,0,1,69.38,32Z"/><polygon class="cls-1" points="95.61 19.7 95.57 19.63 95.62 19.58 95.7 19.5 105.25 9.62 98.87 9.62 88 21.45 87.77 21.7 87.61 21.88 87.61 21.64 87.61 21.29 87.61 9.62 82.83 9.62 82.83 35.59 87.61 35.59 87.61 27.83 87.61 27.77 87.61 27.74 87.64 27.71 87.68 27.67 92.1 23.15 92.23 23.02 92.31 22.94 92.37 23.04 92.46 23.2 92.51 23.27 99.72 35.59 105.95 35.59 95.67 19.79 95.61 19.7"/><path class="cls-1" d="M116.23,36.06a14.83,14.83,0,0,0,5.67-.95,7.34,7.34,0,0,0,3.45-2.85,8.07,8.07,0,0,0,.21-8.19,7.21,7.21,0,0,0-2.82-2.59A25.9,25.9,0,0,0,117,19.59c-2.64-.62-4.34-1.24-5-1.84a2.33,2.33,0,0,1-.9-1.84A2.22,2.22,0,0,1,112,14a6.44,6.44,0,0,1,3.83-1,5.7,5.7,0,0,1,3.58,1A4.69,4.69,0,0,1,121,16.85l4.81-.21a7.42,7.42,0,0,0-2.54-5.35c-1.62-1.41-4.09-2.12-7.34-2.12a13.06,13.06,0,0,0-5.11.9,7,7,0,0,0-3.18,2.58,6.57,6.57,0,0,0-1.1,3.64,6.66,6.66,0,0,0,2.35,5.13A14.37,14.37,0,0,0,114.8,24c2.27.57,3.68.95,4.32,1.17a4.72,4.72,0,0,1,2.06,1.24,2.72,2.72,0,0,1,.62,1.79A3.56,3.56,0,0,1,120.38,31a6.28,6.28,0,0,1-4.09,1.16,6.09,6.09,0,0,1-4.08-1.3,6.49,6.49,0,0,1-2-3.76l-4.65.45a9.74,9.74,0,0,0,3.09,6.3C110.42,35.3,113,36.06,116.23,36.06Z"/><polygon class="cls-1" points="25.31 53.17 14.67 53.17 14.53 53.17 14.44 53.17 14.44 53.08 14.44 52.95 14.44 42.72 9.67 42.72 9.67 68.69 14.44 68.69 14.44 57.3 14.44 57.17 14.44 57.08 14.53 57.08 14.67 57.08 25.31 57.08 25.45 57.08 25.54 57.08 25.54 57.17 25.54 57.3 25.54 68.69 30.31 68.69 30.31 42.72 25.54 42.72 25.54 52.95 25.54 53.08 25.54 53.17 25.45 53.17 25.31 53.17"/><path class="cls-1" d="M69.38,65.15a6.19,6.19,0,0,1-4.93-2.24c-1.25-1.47-1.88-3.95-1.88-7.36,0-3.22.64-5.6,1.91-7.06a6.35,6.35,0,0,1,5-2.22,5.94,5.94,0,0,1,3.82,1.26,5.87,5.87,0,0,1,2,3.14L80,49.53a10,10,0,0,0-2.55-4.46,10.81,10.81,0,0,0-7.72-2.8A11.51,11.51,0,0,0,61,45.84c-2.22,2.38-3.34,5.78-3.34,10.1,0,4.08,1.12,7.34,3.33,9.68a11.19,11.19,0,0,0,8.48,3.52,11.1,11.1,0,0,0,6.88-2.05,11.27,11.27,0,0,0,3.79-6L75.48,59.6a8,8,0,0,1-2.23,4.12A5.68,5.68,0,0,1,69.38,65.15Z"/><polygon class="cls-1" points="95.61 52.8 95.57 52.74 95.62 52.68 95.7 52.61 105.25 42.72 98.87 42.72 88 54.55 87.77 54.8 87.61 54.98 87.61 54.74 87.61 54.4 87.61 42.72 82.83 42.72 82.83 68.69 87.61 68.69 87.61 60.93 87.61 60.88 87.61 60.84 87.64 60.81 87.68 60.77 92.1 56.25 92.23 56.13 92.31 56.04 92.37 56.14 92.46 56.3 92.51 56.37 99.72 68.69 105.95 68.69 95.67 52.89 95.61 52.8"/><polygon class="cls-1" points="113.2 64.81 113.11 64.81 113.11 64.72 113.11 64.58 113.11 57.22 113.11 57.08 113.11 56.99 113.2 56.99 113.33 56.99 126.44 56.99 126.44 53.1 113.33 53.1 113.2 53.1 113.11 53.1 113.11 53.01 113.11 52.88 113.11 46.85 113.11 46.72 113.11 46.63 113.2 46.63 113.33 46.63 127.44 46.63 127.44 42.72 108.33 42.72 108.33 68.69 127.95 68.69 127.95 64.81 113.33 64.81 113.2 64.81"/><path class="cls-1" d="M148.13,59.69a12.28,12.28,0,0,0-2.8-2.17l-.17-.1-.34-.2-.22-.13.26,0,.38-.06.19,0a8.2,8.2,0,0,0,5.08-2.36,6.84,6.84,0,0,0,1.68-4.74,7.39,7.39,0,0,0-1.11-4,5.84,5.84,0,0,0-2.94-2.43,19.15,19.15,0,0,0-6.09-.7h-11v26h4.77V57.6h1.38a9.16,9.16,0,0,1,2.8.32,4.43,4.43,0,0,1,1.73,1.18A37.8,37.8,0,0,1,144.6,63l3.79,5.65h5.73l-3-4.73A30.15,30.15,0,0,0,148.13,59.69Zm-8-5.74h-4.26V46.63h4.48c2.17,0,3.5,0,4,.09a3.6,3.6,0,0,1,2.2,1.14,3.48,3.48,0,0,1,.79,2.36,3.76,3.76,0,0,1-.59,2.16A3.19,3.19,0,0,1,145,53.61,20.31,20.31,0,0,1,140.1,54Z"/><path class="cls-1" d="M170.9,54.58a25.89,25.89,0,0,0-5.72-1.89c-2.64-.62-4.34-1.24-5-1.84a2.33,2.33,0,0,1-.9-1.84,2.22,2.22,0,0,1,1-1.89,6.44,6.44,0,0,1,3.83-1,5.7,5.7,0,0,1,3.58,1,4.69,4.69,0,0,1,1.54,2.87l4.81-.21a7.42,7.42,0,0,0-2.54-5.35c-1.62-1.41-4.09-2.12-7.34-2.12a13.06,13.06,0,0,0-5.11.9,7,7,0,0,0-3.18,2.58,6.57,6.57,0,0,0-1.1,3.64A6.66,6.66,0,0,0,157,54.51,14.37,14.37,0,0,0,163,57.07c2.27.57,3.68.95,4.32,1.17a4.72,4.72,0,0,1,2.06,1.24,2.72,2.72,0,0,1,.62,1.79,3.56,3.56,0,0,1-1.42,2.79,6.28,6.28,0,0,1-4.09,1.16,6.08,6.08,0,0,1-4.08-1.3,6.49,6.49,0,0,1-2-3.76l-4.65.45a9.74,9.74,0,0,0,3.09,6.3c1.74,1.5,4.27,2.26,7.54,2.26a14.83,14.83,0,0,0,5.67-.95,7.34,7.34,0,0,0,3.45-2.85,7.57,7.57,0,0,0,1.22-4.12,7.64,7.64,0,0,0-1-4.08A7.21,7.21,0,0,0,170.9,54.58Z"/><path class="cls-1" d="M145.94,9.62h-4.67l-10.12,26h4.45Z"/><polygon class="cls-1" points="39.81 29.56 47.58 9.62 42.51 9.62 32.4 35.59 37.45 35.59 39.8 29.56 39.81 29.56"/><polygon class="cls-1" points="50.01 15.19 47.56 21.35 49.05 25.37 49.12 25.55 49.17 25.67 49.04 25.67 48.84 25.67 45.84 25.67 44.3 29.56 50.51 29.56 50.6 29.56 50.67 29.56 50.69 29.62 50.72 29.7 50.74 29.75 52.98 35.59 58.18 35.59 50.01 15.19"/><polygon class="cls-1" points="39.82 62.66 47.58 42.72 42.52 42.72 32.4 68.69 37.46 68.69 39.81 62.66 39.82 62.66"/><polygon class="cls-1" points="50.02 48.29 47.57 54.45 49.06 58.47 49.13 58.65 49.17 58.77 49.04 58.77 48.85 58.77 45.85 58.77 44.3 62.66 50.52 62.66 50.61 62.66 50.67 62.66 50.7 62.72 50.73 62.81 50.75 62.85 52.99 68.69 58.19 68.69 50.02 48.29"/></svg>