<svg id="Layer_1" data-name="Layer 1" xmlns="http://www.w3.org/2000/svg" viewBox="0 0 47.53 45"><defs><style>.cls-1{fill:#01b3b9;}</style></defs><title>hacks-hackers-bne-small</title><polygon class="cls-1" points="33.23 9.57 33.23 19.8 33.23 19.93 33.23 20.02 33.13 20.02 33 20.02 30.64 20.02 29.15 23.92 33 23.92 33.13 23.92 33.23 23.92 33.23 24.02 33.23 24.15 33.23 35.53 38 35.53 38 9.57 33.23 9.57"/><polyline class="cls-1" points="26.22 20.02 26.13 20.02 26.13 19.93 26.13 19.8"/><polygon class="cls-1" points="21.43 35.52 16.07 35.52 25.92 9.56 31.29 9.56 21.43 35.52"/><polygon class="cls-1" points="18.63 20.02 14.36 20.02 14.23 20.02 14.14 20.02 14.14 19.93 14.14 19.8 14.14 9.57 9.37 9.57 9.37 35.53 14.14 35.53 14.14 24.15 14.14 24.02 14.14 23.92 14.23 23.92 14.36 23.92 17.15 23.92 18.63 20.02"/></svg>